<svg xmlns="http://www.w3.org/2000/svg" width="192" height="192" viewBox="0 0 512 512">
  <defs>
    <linearGradient id="bg" x1="0" y1="0" x2="1" y2="1">
      <stop offset="0%" stop-color="#1a1a2e"/>
      <stop offset="100%" stop-color="#0a0a15"/>
    </linearGradient>
    <linearGradient id="bl" x1="0" y1="0" x2="0" y2="1">
      <stop offset="0%" stop-color="#fff" stop-opacity=".95"/>
      <stop offset="100%" stop-color="#ccc" stop-opacity=".5"/>
    </linearGradient>
    <radialGradient id="gl" cx=".5" cy=".9" r=".45">
      <stop offset="0%" stop-color="#4f7cff" stop-opacity=".3"/>
      <stop offset="100%" stop-color="#4f7cff" stop-opacity="0"/>
    </radialGradient>
    <linearGradient id="cloak" x1="0" y1="0" x2=".3" y2="1">
      <stop offset="0%" stop-color="#4f7cff" stop-opacity=".35"/>
      <stop offset="100%" stop-color="#1a1a4e" stop-opacity=".15"/>
    </linearGradient>
  </defs>
  <rect width="512" height="512" rx="112" fill="url(#bg)"/>
  <ellipse cx="250" cy="400" rx="120" ry="16" fill="url(#gl)"/>
  <path d="M218 170 Q185 200 165 260 Q148 310 155 370 Q158 390 170 400 L185 395 Q175 360 172 310 Q170 260 190 210 Q200 185 218 170 Z" fill="url(#cloak)" stroke="#fff" stroke-width="2" stroke-opacity=".2"/>
  <path d="M218 170 Q170 215 140 290 Q118 350 125 395 Q130 410 148 415 L155 410 Q140 370 145 320 Q155 260 185 210 Q200 185 218 170" fill="none" stroke="#fff" stroke-width="3" stroke-opacity=".15" stroke-linecap="round"/>
  <path d="M195 220 Q180 270 178 330" stroke="#fff" stroke-width="1.5" fill="none" opacity=".1" stroke-linecap="round"/>
  <path d="M185 240 Q165 300 168 360" stroke="#fff" stroke-width="1.5" fill="none" opacity=".08" stroke-linecap="round"/>
  <g stroke="#fff" stroke-width="10" stroke-linecap="round" stroke-linejoin="round" fill="none">
    <circle cx="248" cy="115" r="26" fill="#fff" fill-opacity=".12"/>
    <path d="M228 103 Q248 88 268 103" stroke-width="4" opacity=".15"/>
    <line x1="248" y1="141" x2="248" y2="155"/>
    <line x1="248" y1="155" x2="252" y2="270"/>
    <line x1="252" y1="270" x2="228" y2="338"/><line x1="228" y1="338" x2="222" y2="396"/>
    <line x1="252" y1="270" x2="278" y2="340"/><line x1="278" y1="340" x2="284" y2="396"/>
    <line x1="218" y1="175" x2="282" y2="175"/>
    <line x1="218" y1="175" x2="200" y2="220"/><line x1="200" y1="220" x2="198" y2="265"/>
    <line x1="282" y1="175" x2="310" y2="215"/><line x1="310" y1="215" x2="320" y2="255"/>
  </g>
  <line x1="322" y1="284" x2="322" y2="400" stroke="url(#bl)" stroke-width="7" stroke-linecap="round"/>
  <line x1="322" y1="290" x2="322" y2="395" stroke="#fff" stroke-width="2" opacity=".25"/>
  <path d="M298 278 Q305 272 322 272 Q339 272 346 278 L348 284 Q339 288 322 288 Q305 288 296 284 Z" fill="#fff" fill-opacity=".2" stroke="#fff" stroke-width="2.5" stroke-linejoin="round"/>
  <line x1="322" y1="260" x2="322" y2="274" stroke="#fff" stroke-width="8" stroke-linecap="round" opacity=".55"/>
  <path d="M322 248 L329 256 L322 264 L315 256 Z" fill="#fff" fill-opacity=".3" stroke="#fff" stroke-width="2"/>
  <line x1="322" y1="400" x2="310" y2="410" stroke="#fff" stroke-width="2" opacity=".15" stroke-linecap="round"/>
  <line x1="322" y1="400" x2="336" y2="412" stroke="#fff" stroke-width="2" opacity=".12" stroke-linecap="round"/>
  <line x1="322" y1="400" x2="320" y2="415" stroke="#fff" stroke-width="1.5" opacity=".1" stroke-linecap="round"/>
  <line x1="160" y1="400" x2="380" y2="400" stroke="#fff" stroke-width="1.5" opacity=".06" stroke-linecap="round"/>
</svg>
