<svg xmlns="http://www.w3.org/2000/svg" width="192" height="192" viewBox="0 0 192 192">
  <defs>
    <linearGradient id="bg" x1="0" y1="0" x2="1" y2="1">
      <stop offset="0%" stop-color="#151515"/>
      <stop offset="100%" stop-color="#050505"/>
    </linearGradient>
  </defs>
  <rect width="192" height="192" rx="44" fill="url(#bg)"/>
  <path d="M96 38C72 38 52 58 52 82v38c0 0 0 7 8.5 7s8.5-7 8.5-7 0 7 9 7 9-7 9-7 0 7 9 7 9-7 9-7 0 7 9 7 9-7 9-7 0 7 9 7 9-7 9-7 0 7 8.5 7 8.5-7 8.5-7V82c0-24-20-44-44-44z" fill="#fff" opacity=".92"/>
  <ellipse cx="82" cy="88" rx="8" ry="10" fill="#111"/>
  <ellipse cx="110" cy="88" rx="8" ry="10" fill="#111"/>
  <circle cx="85" cy="84" r="3.5" fill="#bbb" opacity=".7"/>
  <circle cx="113" cy="84" r="3.5" fill="#bbb" opacity=".7"/>
  <path d="M88 104q8 6 16 0" fill="none" stroke="#222" stroke-width="2" stroke-linecap="round"/>
  <rect x="126" y="48" width="26" height="20" rx="6" fill="#fff" opacity=".45"/>
  <circle cx="133" cy="58" r="2" fill="#111" opacity=".5"/>
  <circle cx="139" cy="58" r="2" fill="#111" opacity=".5"/>
  <circle cx="145" cy="58" r="2" fill="#111" opacity=".5"/>
  <polygon points="130,68 136,68 128,74" fill="#fff" opacity=".45"/>
</svg>
