<svg xmlns="http://www.w3.org/2000/svg" width="192" height="192" viewBox="0 0 512 512">
  <defs>
    <linearGradient id="bgGrad" x1="0%" y1="0%" x2="100%" y2="100%"><stop offset="0%" stop-color="#1a1b2e"/><stop offset="100%" stop-color="#0f0f1a"/></linearGradient>
    <linearGradient id="ghostGrad" x1="0%" y1="0%" x2="100%" y2="100%"><stop offset="0%" stop-color="#8b5cf6"/><stop offset="50%" stop-color="#6366f1"/><stop offset="100%" stop-color="#4f46e5"/></linearGradient>
  </defs>
  <rect width="512" height="512" rx="108" fill="url(#bgGrad)"/>
  <path d="M256 76c-92 0-156 68-156 156v148c0 4 2 7 5 5l42-30c8-5 16-5 24 0l32 24c6 4 14 4 20 0l22-18 22 18c6 4 14 4 20 0l32-24c8-5 16-5 24 0l42 30c3 2 5-1 5-5V232c0-88-62-156-154-156z" fill="url(#ghostGrad)"/>
  <ellipse cx="210" cy="214" rx="22" ry="26" fill="#fff" opacity=".95"/>
  <ellipse cx="302" cy="214" rx="22" ry="26" fill="#fff" opacity=".95"/>
  <circle cx="216" cy="220" r="11" fill="#1a1a2e"/>
  <circle cx="308" cy="220" r="11" fill="#1a1a2e"/>
  <circle cx="221" cy="213" r="4" fill="#fff" opacity=".9"/>
  <circle cx="313" cy="213" r="4" fill="#fff" opacity=".9"/>
  <path d="M234 262q22 18 44 0" stroke="rgba(255,255,255,.45)" stroke-width="3" fill="none" stroke-linecap="round"/>
  <g transform="translate(340, 100)"><rect width="80" height="52" rx="14" fill="#8b5cf6" opacity=".9"/><circle cx="24" cy="26" r="5" fill="#fff" opacity=".8"/><circle cx="40" cy="26" r="5" fill="#fff" opacity=".8"/><circle cx="56" cy="26" r="5" fill="#fff" opacity=".8"/><polygon points="14,48 24,48 14,62" fill="#8b5cf6" opacity=".9"/></g>
</svg>
