<svg xmlns="http://www.w3.org/2000/svg" width="512" height="512" viewBox="0 0 512 512">
  <defs>
    <linearGradient id="bg" x1="0" y1="0" x2="1" y2="1">
      <stop offset="0%" stop-color="#151515"/>
      <stop offset="100%" stop-color="#050505"/>
    </linearGradient>
  </defs>
  <rect width="512" height="512" rx="112" fill="url(#bg)"/>
  <path d="M256 100C192 100 140 152 140 216v100c0 0 0 18 22 18s22-18 22-18 0 18 24 18 24-18 24-18 0 18 24 18 24-18 24-18 0 18 24 18 24-18 24-18 0 18 24 18 24-18 24-18 0 18 22 18 22-18 22-18V216c0-64-52-116-116-116z" fill="#fff" opacity=".92"/>
  <ellipse cx="220" cy="232" rx="21" ry="26" fill="#111"/>
  <ellipse cx="292" cy="232" rx="21" ry="26" fill="#111"/>
  <circle cx="228" cy="222" r="9" fill="#bbb" opacity=".7"/>
  <circle cx="300" cy="222" r="9" fill="#bbb" opacity=".7"/>
  <path d="M234 276q22 16 44 0" fill="none" stroke="#222" stroke-width="5" stroke-linecap="round"/>
  <rect x="336" y="126" width="70" height="54" rx="14" fill="#fff" opacity=".45"/>
  <circle cx="354" cy="153" r="5" fill="#111" opacity=".5"/>
  <circle cx="370" cy="153" r="5" fill="#111" opacity=".5"/>
  <circle cx="386" cy="153" r="5" fill="#111" opacity=".5"/>
  <polygon points="346,180 362,180 340,198" fill="#fff" opacity=".45"/>
</svg>
